<?xml version="1.0" encoding="UTF-8"?>
<svg version="1.1" xmlns="http://www.w3.org/2000/svg" width="1254" height="1254">
<path d="M0 0 C413.82 0 827.64 0 1254 0 C1254 413.82 1254 827.64 1254 1254 C840.18 1254 426.36 1254 0 1254 C0 840.18 0 426.36 0 0 Z " fill="#0C0D16" transform="translate(0,0)"/>
<path d="M0 0 C6.19918428 0.03618279 12.39844454 0.04917596 18.59770592 0.06553853 C34.88516067 0.10991075 51.17228692 0.19713535 67.45949944 0.29441732 C72.73336686 0.32588473 78.00724104 0.35583447 83.28112268 0.38481522 C123.98437288 0.60886049 164.68695327 0.90027091 205.38950992 1.22552681 C216.30478527 1.31266971 227.22007855 1.39725177 238.13538599 1.4802742 C238.92071962 1.48624819 239.70605325 1.49222218 240.51518486 1.4983772 C244.4607202 1.52837826 248.40625584 1.55833972 252.35179162 1.58828163 C284.32771964 1.83099062 316.30359108 2.08044869 348.27942896 2.33476639 C347.50893707 6.76731686 346.04406128 9.77174857 343.71692896 13.64726639 C340.82240957 18.56645967 338.10804034 23.52425953 335.59192896 28.64726639 C327.81440943 44.42395985 319.61977904 59.98723192 311.14710474 75.40068436 C306.47864225 83.91606847 301.93825308 92.49724256 297.40442896 101.08476639 C291.31927629 112.60958507 285.19364932 124.11008383 278.99939966 135.57670975 C275.30264661 142.42256899 271.6383487 149.28432421 268.02918482 156.1768074 C267.12271048 157.90147925 266.20169884 159.61848933 265.27942896 161.33476639 C264.98704309 162.21477719 264.69465721 163.094788 264.39341116 164.0014658 C261.81154575 166.85119088 261.02739106 166.73536348 257.28982878 166.96003628 C255.0887659 166.98595164 252.88727578 166.98373394 250.6861825 166.96054459 C249.47518741 166.96748913 248.26419232 166.97443368 247.01650041 166.98158866 C243.64828144 166.99590094 240.28144648 166.98775436 236.91332972 166.97031939 C233.2832209 166.95697071 229.65322434 166.97241784 226.02312708 166.98448563 C219.72889579 167.00153445 213.43487488 167.00049391 207.14063692 166.98748207 C198.02714223 166.96884458 188.91386572 166.97961752 179.80037903 166.99795864 C164.99788997 167.02713309 150.19546833 167.03545737 135.39295435 167.02934647 C121.04170955 167.02349311 106.69048742 167.02239843 92.33924341 167.03129959 C91.0154159 167.03211345 91.0154159 167.03211345 89.6648444 167.03294375 C80.02071539 167.03911587 70.37659209 167.04786245 60.73246908 167.06029606 C59.4591305 167.06193479 59.4591305 167.06193479 58.1600679 167.06360662 C54.76529609 167.06802693 51.37052443 167.07250118 47.97575318 167.07733224 C38.05178746 167.09142861 28.12789796 167.09749801 18.20392471 167.08879635 C11.97071035 167.08359694 5.7375212 167.08500304 -0.49569189 167.09149941 C-4.0880257 167.09493318 -7.6802809 167.09504538 -11.27260733 167.08627129 C-15.17659526 167.07676093 -19.0804772 167.08272228 -22.9844718 167.08993912 C-24.10697393 167.08459378 -25.22947607 167.07924845 -26.38599342 167.07374114 C-45.78053701 167.15391028 -60.6061605 172.8076356 -74.90807104 186.02226639 C-87.74950729 199.47017704 -92.28294102 215.37794098 -91.99400854 233.40117264 C-91.36432786 249.63882947 -83.29003958 264.25470007 -71.72057104 275.33476639 C-56.67018498 289.04673336 -39.52741641 291.77224612 -19.95934057 291.82719803 C-18.20837263 291.8428378 -16.45741589 291.85977679 -14.70647192 291.87790298 C-10.96075769 291.91399543 -7.21512724 291.94116841 -3.46929312 291.96121788 C2.46730099 291.99318766 8.40359613 292.0463116 14.34000635 292.10220718 C24.80622282 292.19813373 35.27251379 292.27678546 45.73890162 292.35130692 C61.48301617 292.46341172 77.22702062 292.58734977 92.97088397 292.73053449 C98.85834435 292.78340292 104.74576897 292.82658879 110.63336015 292.86184132 C114.31175269 292.88564067 117.99005155 292.91719052 121.66836786 292.95062828 C123.35846482 292.96439214 125.04859139 292.97499194 126.73872995 292.98197937 C143.84101453 293.05585798 162.63839753 293.81503974 178.27942896 301.33476639 C179.75667341 301.90229533 181.23608524 302.46419636 182.71692896 303.02226639 C193.86067726 307.48315802 207.51554761 312.99877798 216.27942896 321.33476639 C217.15052271 324.1821785 217.15052271 324.1821785 217.27942896 327.33476639 C215.77576685 329.64897537 215.77576685 329.64897537 213.50208521 331.83086014 C212.67772974 332.63716873 211.85337427 333.44347733 211.00403833 334.27421951 C210.12554224 335.09857498 209.24704615 335.92293045 208.34192896 336.77226639 C207.07639185 338.00299881 207.07639185 338.00299881 205.78528833 339.25859451 C201.31299887 343.57916406 196.72320928 347.73418671 192.01941919 351.79985428 C189.66518908 353.87661094 187.46888834 356.08613243 185.27942896 358.33476639 C181.69453284 361.96358161 178.01649296 365.37539499 174.14271021 368.69023514 C172.27491103 370.33875391 170.52487272 372.0578022 168.77942896 373.83476639 C166.48927759 376.16599671 164.14487295 378.34445203 161.65442896 380.45976639 C157.27101948 384.22915742 153.23645474 388.32005326 149.19886255 392.45244217 C146.40591815 395.29039218 143.5572179 397.99158425 140.53211451 400.58208084 C136.47765594 404.11301633 132.66778131 407.83347734 128.89271021 411.65898514 C128.22781076 412.3276712 127.56291132 412.99635727 126.87786341 413.68530655 C124.78007161 415.79518128 122.68559093 417.90829403 120.59192896 420.02226639 C117.82011643 422.82076456 115.04494311 425.61586725 112.26771021 428.40898514 C111.32693377 429.36220909 111.32693377 429.36220909 110.36715174 430.33469009 C107.14961097 433.57011018 103.89320315 436.5350951 100.27942896 439.33476639 C97.68096051 441.86827312 95.16024268 444.4596282 92.65442896 447.08476639 C88.91555627 450.6268563 85.90519157 450.46013489 80.94970179 450.46175003 C80.30490934 450.46331002 79.6601169 450.46487001 78.9957853 450.46647727 C76.8311141 450.47047171 74.66651281 450.46730353 72.50184107 450.46416092 C70.95114078 450.46551574 69.40044081 450.46729613 67.84974146 450.46947098 C63.63243202 450.47403831 59.41514699 450.47225791 55.19783711 450.46909189 C50.78090632 450.46656154 46.36397763 450.46890801 41.94704676 450.47047806 C34.52146006 450.47229911 27.09588329 450.46989652 19.6702981 450.46513748 C11.10158469 450.459709 2.53289513 450.46144747 -6.03581768 450.46696389 C-13.39903293 450.47151361 -20.76224103 450.47213605 -28.12545723 450.46952522 C-32.51991363 450.46797086 -36.91435886 450.46774528 -41.30881453 450.47106171 C-45.4480692 450.47396695 -49.58729344 450.47191628 -53.72654486 450.46616745 C-55.23976291 450.46485341 -56.75298355 450.46521071 -58.26620054 450.46743011 C-77.91839216 450.49357805 -77.91839216 450.49357805 -87.27135229 447.93242264 C-90.66445469 447.10444071 -94.0970433 446.51501057 -97.53307104 445.89726639 C-106.4829005 444.25434742 -114.97654119 442.32187873 -123.24010229 438.41679764 C-126.18087115 437.13397406 -129.17554471 436.15764571 -132.22057104 435.14726639 C-144.89076861 430.69557535 -156.61628921 423.82445794 -167.72057104 416.33476639 C-168.74408667 415.65929764 -169.76760229 414.98382889 -170.82213354 414.28789139 C-178.94010458 408.82424501 -186.37209276 402.78623638 -193.72057104 396.33476639 C-194.73348566 395.45834153 -195.74650358 394.58203605 -196.75963354 393.70586014 C-201.9620462 389.14092621 -201.9620462 389.14092621 -203.72057104 387.33476639 C-203.72057104 386.67476639 -203.72057104 386.01476639 -203.72057104 385.33476639 C-204.38057104 385.33476639 -205.04057104 385.33476639 -205.72057104 385.33476639 C-205.72057104 384.67476639 -205.72057104 384.01476639 -205.72057104 383.33476639 C-206.71057104 383.00476639 -207.70057104 382.67476639 -208.72057104 382.33476639 C-212.01210525 378.92211512 -214.83990442 375.09633106 -217.72057104 371.33476639 C-218.22475561 370.67702225 -218.72894018 370.01927811 -219.24840307 369.34160233 C-227.45728095 358.5316192 -234.55343358 347.4266401 -240.72057104 335.33476639 C-241.04219213 334.70538162 -241.36381323 334.07599686 -241.69518042 333.42753983 C-250.32998796 316.2775969 -256.43399985 298.57754716 -260.22008276 279.76738358 C-260.70401187 277.41525206 -261.23851265 275.07974077 -261.78307104 272.74101639 C-269.62380268 237.4693113 -266.20929348 196.2865133 -254.72057104 162.33476639 C-254.30984399 161.03848332 -253.90113391 159.74156014 -253.49400854 158.44414139 C-243.95093143 128.44421483 -227.48344491 96.83060646 -204.34557104 74.92461014 C-202.61474312 73.23122801 -201.08696526 71.44122174 -199.53307104 69.58476639 C-170.48928869 36.18121096 -126.36016182 14.38901684 -83.55211401 5.79619217 C-81.71460462 5.49977854 -81.71460462 5.49977854 -80.72057104 4.33476639 C-54.68757633 -2.21550606 -26.55837579 -0.16290023 0 0 Z " fill="#582EE0" transform="translate(567.7205710411072,249.66523361206055)"/>
<path d="M0 0 C3.04254176 1.65203001 4.62738122 3.31411871 6.55078125 6.19921875 C7.79486854 13.44800046 6.46337267 18.56556655 2.3840332 24.56884766 C1.79968506 25.37499512 1.21533691 26.18114258 0.61328125 27.01171875 C-0.57991436 28.74445622 -1.77261987 30.47753128 -2.96484375 32.2109375 C-3.55587891 33.05188965 -4.14691406 33.8928418 -4.75585938 34.75927734 C-7.15468595 38.21571805 -9.3984458 41.76261851 -11.63671875 45.32421875 C-15.21127663 50.96127663 -15.21127663 50.96127663 -17.44921875 53.19921875 C-18.09174225 55.26795909 -18.09174225 55.26795909 -18.44921875 57.19921875 C-19.10921875 57.19921875 -19.76921875 57.19921875 -20.44921875 57.19921875 C-20.70574219 57.90691406 -20.96226562 58.61460937 -21.2265625 59.34375 C-22.55616843 62.4489958 -24.16139154 65.05872354 -26.01171875 67.88671875 C-26.39537598 68.47573975 -26.7790332 69.06476074 -27.17431641 69.67163086 C-28.07299922 71.04966802 -28.97389425 72.42626389 -29.87646484 73.80175781 C-31.64080862 76.49127285 -33.39871388 79.18493779 -35.15625 81.87890625 C-41.22148087 91.17035466 -47.30258655 100.45139081 -53.38671875 109.73046875 C-55.03263486 112.24083116 -56.67847653 114.75124234 -58.32421875 117.26171875 C-58.93233398 118.18936035 -58.93233398 118.18936035 -59.55273438 119.13574219 C-65.00874733 127.45988395 -70.44383087 135.79696715 -75.83984375 144.16015625 C-78.90537136 148.91053586 -81.99067716 153.64802132 -85.07421875 158.38671875 C-88.79545615 164.10764591 -92.50957487 169.83286084 -96.19921875 175.57421875 C-96.91207031 176.68023438 -97.62492187 177.78625 -98.359375 178.92578125 C-99.75907838 181.11821383 -101.14181491 183.32156623 -102.5078125 185.53515625 C-107.21179704 193.11761707 -112.4050421 200.16222464 -117.93530273 207.16381836 C-122.30485298 212.69936245 -126.53652 218.31916845 -130.69921875 224.01171875 C-134.576583 229.31181265 -138.48036961 234.57762519 -142.51171875 239.76171875 C-148.11873734 246.99953686 -153.44428859 254.43425663 -158.78027344 261.87304688 C-169.38005923 276.64700227 -180.11116904 291.32081677 -190.953125 305.91796875 C-197.50772804 314.7572093 -203.91691626 323.67774258 -210.19702148 332.71411133 C-215.33409553 340.08507011 -220.65099327 347.31339463 -226 354.53125 C-234.96945936 366.6416666 -243.70430306 378.92615712 -252.44921875 391.19921875 C-260.62886583 402.67895352 -268.87547962 414.10941618 -277.13574219 425.53125 C-289.26927513 442.2961225 -289.26927513 442.2961225 -301.2421875 459.17578125 C-307.12603454 467.55812718 -313.11120786 475.8517602 -319.21313477 484.0769043 C-323.79183969 490.263982 -328.24964567 496.52900208 -332.63085938 502.85742188 C-333.09041016 503.51677734 -333.54996094 504.17613281 -334.0234375 504.85546875 C-334.42135498 505.43103516 -334.81927246 506.00660156 -335.22924805 506.59960938 C-338.60504834 511.02591386 -338.60504834 511.02591386 -341.66539001 511.65419006 C-342.96011986 511.70753761 -342.96011986 511.70753761 -344.28100586 511.76196289 C-345.26310532 511.80692398 -346.24520477 511.85188507 -347.25706482 511.89820862 C-351.77334184 512.0190819 -356.2883601 512.13337679 -360.8059082 512.19458008 C-363.17777713 512.23905161 -365.54928649 512.31386516 -367.91918945 512.42016602 C-388.64243883 513.34573786 -388.64243883 513.34573786 -394.54345703 508.25341797 C-397.18946709 505.42771968 -399.27776816 502.37375407 -401.26075745 499.05857849 C-403.32394184 495.83070562 -405.90607459 493.05232344 -408.44921875 490.19921875 C-409.4501569 489.03577775 -410.44912332 487.87063485 -411.4453125 486.703125 C-413.45720877 484.35580349 -415.47034633 482.00955458 -417.484375 479.6640625 C-424.62977014 471.34023531 -431.72730565 462.97723117 -438.80371094 454.59472656 C-444.49941499 447.84927432 -450.21850399 441.12509589 -455.97070312 434.42773438 C-459.7471998 430.02750663 -463.49235685 425.60170526 -467.22998047 421.16845703 C-470.80627128 416.93657693 -474.43552175 412.75247033 -478.07421875 408.57421875 C-482.60030827 403.37678905 -487.003298 398.09956245 -491.33984375 392.7421875 C-494.18751126 389.30916611 -497.19159205 386.03063171 -500.1953125 382.734375 C-503.33513542 379.20275442 -506.28931746 375.53124 -509.2578125 371.85546875 C-511.29926687 369.3809786 -513.41075828 367.00443657 -515.57421875 364.63671875 C-522.23606905 357.21361436 -527.45737055 348.75396876 -532.63671875 340.26171875 C-533.77005054 338.41618573 -534.90418292 336.57114414 -536.0390625 334.7265625 C-536.60608887 333.80472168 -537.17311523 332.88288086 -537.75732422 331.93310547 C-540.37144083 327.70902498 -543.03591668 323.51738406 -545.69921875 319.32421875 C-547.62053778 316.28546537 -549.53686485 313.24362147 -551.44921875 310.19921875 C-551.8987793 309.48411133 -552.34833984 308.76900391 -552.81152344 308.03222656 C-554.07586008 306.01060007 -555.32723667 303.98158436 -556.57421875 301.94921875 C-556.94063477 301.36543457 -557.30705078 300.78165039 -557.68457031 300.18017578 C-561.28564832 294.24888731 -563.90990194 287.19240113 -562.44921875 280.19921875 C-559.47231239 273.87461698 -555.40761328 269.73011922 -549.44921875 266.19921875 C-538.35247503 262.74070834 -524.00182506 264.64693358 -513.68359375 269.5 C-509.70870405 271.58825727 -505.82811953 273.81372096 -501.94921875 276.07421875 C-501.12172119 276.5547168 -500.29422363 277.03521484 -499.44165039 277.53027344 C-492.32382242 281.67131338 -485.23908808 285.86768734 -478.15649414 290.06860352 C-470.76709372 294.44247419 -463.33142099 298.73282399 -455.88671875 303.01171875 C-451.73888345 305.40410091 -447.59371438 307.8010575 -443.44921875 310.19921875 C-442.39154297 310.80757568 -442.39154297 310.80757568 -441.3125 311.42822266 C-427.2287116 319.56611666 -414.76936615 329.65290379 -403.05639648 340.8840332 C-398.57881567 345.17632712 -393.953256 349.15546538 -389.09765625 353.01953125 C-385.53563348 355.95110751 -382.18390913 359.08632246 -378.81445312 362.23510742 C-375.05873753 365.71681412 -371.13956975 368.85462024 -366.99609375 371.859375 C-366.23039062 372.52259766 -366.23039062 372.52259766 -365.44921875 373.19921875 C-365.44921875 373.85921875 -365.44921875 374.51921875 -365.44921875 375.19921875 C-361.45922313 373.86922021 -359.89382485 371.24906522 -357.44921875 368.01171875 C-356.46105734 366.72907433 -355.47277264 365.44652489 -354.484375 364.1640625 C-353.9805127 363.50519043 -353.47665039 362.84631836 -352.95751953 362.16748047 C-350.6219219 359.1196352 -348.25698207 356.09514259 -345.88671875 353.07421875 C-345.42958496 352.49043457 -344.97245117 351.90665039 -344.50146484 351.30517578 C-341.59298162 347.60637749 -338.61046484 343.98214425 -335.57421875 340.38671875 C-331.02615736 334.97646563 -326.74459476 329.39147698 -322.47705078 323.75854492 C-318.21459159 318.15138875 -313.80760837 312.68005205 -309.33813477 307.23730469 C-304.76117382 301.64009024 -300.36166834 295.91816158 -296.02539062 290.1328125 C-292.88598327 285.97136721 -289.58578578 282.02332982 -286.12744141 278.12353516 C-283.66274537 275.2974173 -281.36661485 272.35292091 -279.07421875 269.38671875 C-278.11524211 268.15964112 -277.1555991 266.933084 -276.1953125 265.70703125 C-275.72851074 265.11051758 -275.26170898 264.51400391 -274.78076172 263.89941406 C-268.12889423 255.40590376 -261.05598837 247.46784948 -253.66015625 239.625 C-251.36956687 237.19263712 -249.12581107 234.73489356 -246.94921875 232.19921875 C-242.48207663 227.01193282 -237.7491655 222.06562161 -233.0703125 217.0703125 C-229.80658164 213.58537034 -226.56033994 210.08479647 -223.32421875 206.57421875 C-222.83590576 206.04465576 -222.34759277 205.51509277 -221.84448242 204.96948242 C-220.3790433 203.37971773 -218.91404632 201.78954694 -217.44921875 200.19921875 C-208.81999252 190.83067461 -200.15423796 181.4974059 -191.44921875 172.19921875 C-190.44157471 171.12172363 -190.44157471 171.12172363 -189.41357422 170.02246094 C-174.77492343 154.37648521 -174.77492343 154.37648521 -168.5390625 148.3515625 C-166.75834688 146.51759183 -165.11144033 144.64575156 -163.453125 142.703125 C-157.93113214 136.34595921 -151.83533587 130.5292064 -145.84667969 124.6171875 C-140.44929001 119.2826736 -135.13077011 113.95208791 -130.20166016 108.17431641 C-126.5468699 104.05516717 -122.55902304 100.24872628 -118.63671875 96.38671875 C-116.94039629 94.71588574 -115.24628002 93.04280905 -113.5546875 91.3671875 C-112.44323364 90.27313599 -112.44323364 90.27313599 -111.30932617 89.15698242 C-109.28496838 87.1380696 -109.28496838 87.1380696 -107.44921875 84.19921875 C-106.78921875 84.19921875 -106.12921875 84.19921875 -105.44921875 84.19921875 C-105.05022291 83.31370457 -105.05022291 83.31370457 -104.64316654 82.41030121 C-103.4187446 80.1427834 -102.15497504 78.64599723 -100.34605408 76.82189941 C-99.70842133 76.17429153 -99.07078857 75.52668365 -98.41383362 74.85945129 C-97.71515671 74.16010971 -97.0164798 73.46076813 -96.29663086 72.74023438 C-95.55977051 71.99505051 -94.82291016 71.24986664 -94.0637207 70.48210144 C-91.62346621 68.01773229 -89.17560113 65.56110678 -86.7265625 63.10546875 C-85.02454592 61.39448546 -83.32260711 59.68342479 -81.6207428 57.97229004 C-78.04915022 54.38419984 -74.47317907 50.80053502 -70.89477539 47.21923828 C-66.31879955 42.63788467 -61.75918281 38.04061433 -57.20343685 33.43915558 C-53.69193772 29.89785426 -50.16917946 26.36791805 -46.64325142 22.84098816 C-44.95791814 21.15145728 -43.27669359 19.45781722 -41.5997448 17.75996399 C-39.24741052 15.3806593 -36.87964938 13.01779968 -34.50756836 10.65820312 C-33.82306107 9.95886154 -33.13855377 9.25951996 -32.43330383 8.53898621 C-23.63660144 -0.12706275 -12.23737121 -4.00105438 0 0 Z " fill="#5A33E7" transform="translate(982.44921875,460.80078125)"/>
<path d="M0 0 C4.81066608 3.69051099 8.35384319 8.62513407 11.9921875 13.421875 C14.37259437 16.47842857 16.86194016 19.42734437 19.375 22.375 C23.47034615 27.18465877 27.50892924 32.03344703 31.49609375 36.93359375 C33.41776017 39.28696059 35.34759522 41.63242767 37.28515625 43.97265625 C42.89655697 50.75422519 48.4729917 57.54992501 53.875 64.5 C57.4470308 69.09279445 61.15053818 73.50960878 65.05859375 77.8203125 C68.85770734 82.08571569 72.41004361 86.5586391 76 91 C78.12359993 93.62613653 80.24846686 96.25123795 82.375 98.875 C82.92784668 99.55715576 83.48069336 100.23931152 84.05029297 100.94213867 C88.03361012 105.84365404 92.08868965 110.67824197 96.18481445 115.4855957 C99.52930791 119.41910287 102.76600619 123.42663766 105.97265625 127.47265625 C109.10556251 131.37822532 112.33344635 135.20361151 115.546875 139.04296875 C118.47215159 142.56913815 121.32683972 146.1472916 124.171875 149.73828125 C125.89854237 151.8744787 127.68279042 153.94077887 129.5 156 C132 159 132 159 132 161 C47.52 161 -36.96 161 -124 161 C-123.09415641 155.56493845 -122.55672458 154.09188439 -119.4375 150.015625 C-117.84421897 147.7815679 -116.59166707 145.49001024 -115.3125 143.0625 C-111.64366655 136.19399339 -107.48062767 129.66103322 -103.31884766 123.08496094 C-101.18278895 119.70807435 -99.05825239 116.32401584 -96.9375 112.9375 C-96.51911865 112.26952393 -96.1007373 111.60154785 -95.66967773 110.91333008 C-93.00022132 106.63794364 -90.38900204 102.33190126 -87.8125 98 C-83.28431394 90.39112914 -78.57299401 82.89953733 -73.8671875 75.3996582 C-69.45873571 68.36271094 -65.11508192 61.2896046 -60.8125 54.1875 C-55.61858822 45.62019293 -50.3370412 37.1156576 -44.95703125 28.6640625 C-42.86819216 25.38150118 -40.80766673 22.08289743 -38.76171875 18.7734375 C-38.22627441 17.91202148 -37.69083008 17.05060547 -37.13916016 16.16308594 C-36.11921049 14.52118493 -35.10421646 12.87619062 -34.09521484 11.22753906 C-30.56358879 5.56465346 -26.58537563 -0.68989268 -19.8125 -2.625 C-12.67610727 -3.57651903 -6.4931571 -3.29941618 0 0 Z " fill="#5C34E9" transform="translate(411,810)"/>
<path d="M0 0 C1.8359375 0.0390625 1.8359375 0.0390625 4 1 C5.10495656 3.509045 5.90034942 5.75552015 6.625 8.375 C6.83664795 9.09872803 7.0482959 9.82245605 7.26635742 10.56811523 C9.57058784 18.64322045 11.37487952 26.56521082 11 35 C11.66 35 12.32 35 13 35 C17.26918211 61.33932889 16.17992595 88.33067309 9 114 C8.73147217 114.99652588 8.73147217 114.99652588 8.45751953 116.01318359 C-0.86056098 150.5673858 -17.32881468 180.99098326 -42 207 C-42.45681152 207.48936035 -42.91362305 207.9787207 -43.38427734 208.48291016 C-63.93262145 230.38159351 -89.96767158 246.56278803 -117.96484375 257.17578125 C-119.98506261 257.9939505 -121.83734774 258.95782413 -123.75 260 C-140.79884808 268.60849134 -164.06317148 271.30058458 -183 271 C-183.83984375 269.0234375 -183.83984375 269.0234375 -184 266 C-182.53964369 262.96888801 -180.54311547 260.33556788 -178.5625 257.625 C-177.97847412 256.79991943 -177.39444824 255.97483887 -176.79272461 255.12475586 C-175.53013088 253.34110752 -174.2617492 251.56154535 -172.98828125 249.78564453 C-170.31199513 246.03608355 -167.69174611 242.24886615 -165.06982422 238.46118164 C-157.62406783 227.7091182 -150.11220048 217.00270511 -142.60644531 206.29248047 C-138.63566689 200.62597449 -134.6665342 194.95836778 -130.7109375 189.28125 C-125.01818046 181.11816296 -119.29157857 172.98585578 -113.4375 164.9375 C-108.48739367 158.12520724 -103.68841109 151.22254202 -98.95385742 144.2590332 C-94.34625413 137.48600202 -89.65954591 130.7708162 -84.95385742 124.06567383 C-81.74448153 119.4923469 -78.54777014 114.91129859 -75.375 110.3125 C-72.53136847 106.19395618 -69.6592165 102.09738219 -66.765625 98.01391602 C-57.47758422 84.90622831 -48.40328653 71.65734957 -39.52026367 58.27197266 C-36.23130843 53.32419939 -32.86017946 48.436759 -29.46875 43.55859375 C-20.53739088 30.70318452 -11.7740982 17.73631489 -3.12231445 4.69140625 C-2.08371335 3.12616186 -1.04199251 1.56298876 0 0 Z " fill="#6137EA" transform="translate(869,698)"/>
<path d="M0 0 C70.62 0 141.24 0 214 0 C213.67 0.66 213.34 1.32 213 2 C210.515625 2.48657227 210.515625 2.48657227 207.25 2.81640625 C206.0846875 2.94080078 204.919375 3.06519531 203.71875 3.19335938 C202.4915625 3.31517578 201.264375 3.43699219 200 3.5625 C197.58294559 3.81004496 195.16625216 4.06114952 192.75 4.31640625 C191.67234375 4.42412354 190.5946875 4.53184082 189.484375 4.64282227 C187.0624934 4.73774512 187.0624934 4.73774512 186 6 C184.515 6.185625 184.515 6.185625 183 6.375 C179.19344154 6.85862013 175.80880145 8.03702262 172.203125 9.3125 C170 10 170 10 166.25 10.5 C163.02368273 10.77928176 163.02368273 10.77928176 160.71875 12.4140625 C157.60400655 14.23099618 154.74278168 14.99792371 151.25 15.875 C145.91279937 17.31839388 141.50532943 19.05103235 136.8671875 22.046875 C135 23 135 23 131 23 C131 23.66 131 24.32 131 25 C129.5437455 25.67119549 128.08492133 26.33681807 126.625 27 C125.81289062 27.37125 125.00078125 27.7425 124.1640625 28.125 C122 29 122 29 120 29 C120 29.66 120 30.32 120 31 C119.01 31 118.02 31 117 31 C117 31.66 117 32.32 117 33 C116.18208984 33.43699219 116.18208984 33.43699219 115.34765625 33.8828125 C105.84285338 38.83471704 105.84285338 38.83471704 97.5546875 45.4921875 C96 47 96 47 93.6640625 48.3671875 C89.44986298 50.95008398 86.10333539 54.4365734 82.5234375 57.8203125 C80 60 80 60 77 61 C75.80732187 62.42458777 74.61910037 63.85351904 73.46875 65.3125 C71.374345 67.71883766 68.95192804 69.63358722 66.453125 71.60546875 C64.72588257 73.04648744 64.72588257 73.04648744 64 76 C62.50289694 77.23673731 61.00349266 78.47110913 59.48046875 79.67578125 C57.45925092 81.48367794 56.37061147 83.67591967 55 86 C53.7315625 86.99 53.7315625 86.99 52.4375 88 C49.76649839 90.19159106 48.99547678 91.74207599 48 95 C47.34 95 46.68 95 46 95 C45.34 96.32 44.68 97.64 44 99 C43.34 99 42.68 99 42 99 C41.9071875 100.051875 41.9071875 100.051875 41.8125 101.125 C40.70970684 105.02719119 38.65783979 106.94348424 36 110 C35.505 111.485 35.505 111.485 35 113 C34.34 113 33.68 113 33 113 C32.67 114.65 32.34 116.3 32 118 C31.34 118 30.68 118 30 118 C29.896875 118.53625 29.79375 119.0725 29.6875 119.625 C28.81561099 122.63698021 27.40560848 125.18878304 26 128 C24.29343902 131.98367369 22.6419193 135.98930385 21 140 C20.34 140 19.68 140 19 140 C18.731875 141.155 18.46375 142.31 18.1875 143.5 C17.47144887 146.37428976 16.63317334 149.11378982 15.5625 151.875 C12.27837208 160.35762185 10.13859277 169.17261706 8 178 C7.34 178 6.68 178 6 178 C5.505 184.435 5.505 184.435 5 191 C4.34 191 3.68 191 3 191 C3.01740234 191.85658203 3.01740234 191.85658203 3.03515625 192.73046875 C3.11379381 199.79661515 3.1173072 207.01155967 2 214 C1.34 214.33 0.68 214.66 0 215 C0 144.05 0 73.1 0 0 Z " fill="#000000" transform="translate(0,0)"/>
<path d="M0 0 C0.99 0.495 0.99 0.495 2 1 C2.37890625 3.23730469 2.37890625 3.23730469 2.5625 6.171875 C2.63726562 7.22890625 2.71203125 8.2859375 2.7890625 9.375 C2.85867188 10.48875 2.92828125 11.6025 3 12.75 C3.13834516 14.93277917 3.28392946 17.11511416 3.4375 19.296875 C3.49808594 20.26979492 3.55867187 21.24271484 3.62109375 22.24511719 C4.01488326 25.10821049 4.87367266 27.35192055 6 30 C6.1953125 32.45703125 6.1953125 32.45703125 6.125 34.8125 C6.10695313 35.60269531 6.08890625 36.39289063 6.0703125 37.20703125 C6.03550781 38.09455078 6.03550781 38.09455078 6 39 C6.66 39 7.32 39 8 39 C8.31453125 40.25554687 8.6290625 41.51109375 8.953125 42.8046875 C12.21750493 55.65461494 12.21750493 55.65461494 17 68 C21.45547399 77.7799234 21.45547399 77.7799234 22 82 C22.66 82 23.32 82 24 82 C24.24234375 82.64066406 24.4846875 83.28132813 24.734375 83.94140625 C27.76746967 93.22667856 27.76746967 93.22667856 34 100 C33.505 101.98 33.505 101.98 33 104 C33.99 104 34.98 104 36 104 C39.14907485 107.89003364 40.526508 111.02833396 41 116 C41.99 116 42.98 116 44 116 C44 116.66 44 117.32 44 118 C44.66 118 45.32 118 46 118 C46.2475 118.7425 46.495 119.485 46.75 120.25 C48.11977727 123.26350999 49.5692094 124.78369093 52 127 C55.13392266 129.85740007 56.49584086 132.06207263 58 136 C59.64295195 137.36244796 61.30824337 138.69864875 63 140 C63.33 140.99 63.66 141.98 64 143 C65.58801526 144.6481667 65.58801526 144.6481667 67.5625 146.25 C68.27535156 146.85714844 68.98820312 147.46429687 69.72265625 148.08984375 C70.47417969 148.72019531 71.22570312 149.35054687 72 150 C73.50464637 151.26532868 75.00488541 152.53592266 76.5 153.8125 C77.1703125 154.37582031 77.840625 154.93914062 78.53125 155.51953125 C80 157 80 157 80 159 C81.32 159 82.64 159 84 159 C86.60990767 161.23706372 88.58646297 163.12427452 90.0625 166.25 C90.371875 166.8275 90.68125 167.405 91 168 C92.90178785 168.60061233 92.90178785 168.60061233 95 169 C97.25 170.4375 97.25 170.4375 99 172 C99 172.66 99 173.32 99 174 C99.87785156 174.25523437 100.75570312 174.51046875 101.66015625 174.7734375 C105.0662615 176.02433463 107.49076884 177.52676022 110.4375 179.625 C122.23769644 187.65669967 134.5349608 193.32881689 148 198 C148 198.66 148 199.32 148 200 C149.2065625 200.1546875 149.2065625 200.1546875 150.4375 200.3125 C154.78247386 201.15100373 158.83457527 202.52821659 163 204 C163 204.66 163 205.32 163 206 C164.03125 205.95875 165.0625 205.9175 166.125 205.875 C170 206 170 206 172.48828125 206.84765625 C177.59135506 208.52219104 182.8001201 209.5125138 188.0625 210.5625 C189.17616943 210.78574951 190.28983887 211.00899902 191.43725586 211.23901367 C198.96384716 212.70564667 206.3190002 213.83202585 214 214 C214 214.66 214 215.32 214 216 C143.38 216 72.76 216 0 216 C0 144.72 0 73.44 0 0 Z " fill="#000000" transform="translate(0,1038)"/>
<path d="M0 0 C0.66 0 1.32 0 2 0 C2 66.33 2 132.66 2 201 C-68.29 201 -138.58 201 -211 201 C-211 200.34 -211 199.68 -211 199 C-205.72 199 -200.44 199 -195 199 C-195 198.34 -195 197.68 -195 197 C-194.21753906 196.93941406 -193.43507813 196.87882812 -192.62890625 196.81640625 C-191.61699219 196.73261719 -190.60507813 196.64882812 -189.5625 196.5625 C-188.55316406 196.48128906 -187.54382812 196.40007812 -186.50390625 196.31640625 C-184.06359221 196.26788532 -184.06359221 196.26788532 -183 195 C-181.17251936 194.67366417 -179.33745203 194.38948173 -177.5 194.125 C-172.95914734 193.39846357 -168.81731962 192.42037194 -164.50390625 190.85546875 C-160.05085662 189.33406802 -155.48463472 188.18519314 -150.94140625 186.96484375 C-147.91689871 186.21789297 -147.91689871 186.21789297 -146 184 C-142.875 183.875 -142.875 183.875 -140 184 C-140 183.34 -140 182.68 -140 182 C-139.27296875 181.72027344 -138.5459375 181.44054688 -137.796875 181.15234375 C-130.95833523 178.4256952 -124.74589445 175.2481069 -118.49609375 171.35546875 C-116 170 -116 170 -113 170 C-113 169.34 -113 168.68 -113 168 C-111.68 168 -110.36 168 -109 168 C-109 167.34 -109 166.68 -109 166 C-108.01 166 -107.02 166 -106 166 C-106 165.34 -106 164.68 -106 164 C-104.390625 162.4921875 -104.390625 162.4921875 -102.25 160.875 C-101.55390625 160.33617187 -100.8578125 159.79734375 -100.140625 159.2421875 C-98 158 -98 158 -94 158 C-93.67 157.01 -93.34 156.02 -93 155 C-92.34 155 -91.68 155 -91 155 C-91 154.34 -91 153.68 -91 153 C-90.01 152.67 -89.02 152.34 -88 152 C-87.21625 151.175 -86.4325 150.35 -85.625 149.5 C-82.9028844 146.90750895 -81.66070817 146.31377499 -78 146 C-78 145.34 -78 144.68 -78 144 C-77.01 144 -76.02 144 -75 144 C-74.8453125 143.0409375 -74.8453125 143.0409375 -74.6875 142.0625 C-74.460625 141.381875 -74.23375 140.70125 -74 140 C-73.01 139.67 -72.02 139.34 -71 139 C-70.31513275 137.67592331 -69.65129797 136.34090759 -69 135 C-67 132.75 -67 132.75 -65 131 C-64.34 131 -63.68 131 -63 131 C-63 130.34 -63 129.68 -63 129 C-61.3777546 127.29006566 -59.70586575 125.62652316 -58 124 C-57.443125 123.401875 -56.88625 122.80375 -56.3125 122.1875 C-55 121 -55 121 -53 121 C-52.938125 120.0925 -52.87625 119.185 -52.8125 118.25 C-51.80065065 114.20260258 -50.29303913 113.40954083 -47 111 C-45.68834743 108.88339573 -45.68834743 108.88339573 -45 107 C-44.34 107 -43.68 107 -43 107 C-43 106.01 -43 105.02 -43 104 C-42.030625 103.195625 -41.06125 102.39125 -40.0625 101.5625 C-36.78177058 98.81739988 -36.84976152 98.73895069 -36 95 C-35.09107204 93.32637516 -34.12787864 91.68157522 -33.125 90.0625 C-32.61195313 89.22847656 -32.09890625 88.39445312 -31.5703125 87.53515625 C-31.05210937 86.69855469 -30.53390625 85.86195312 -30 85 C-29.48179687 84.07058594 -28.96359375 83.14117188 -28.4296875 82.18359375 C-27.95789062 81.46300781 -27.48609375 80.74242187 -27 80 C-26.34 80 -25.68 80 -25 80 C-24.9175 79.34 -24.835 78.68 -24.75 78 C-23.75240209 74.00960837 -21.92833317 70.61450357 -20 67 C-19.34 67 -18.68 67 -18 67 C-17.67 64.69 -17.34 62.38 -17 60 C-16.34 60 -15.68 60 -15 60 C-15 58.02 -15 56.04 -15 54 C-14.34 54 -13.68 54 -13 54 C-13 52.68 -13 51.36 -13 50 C-12.34 50 -11.68 50 -11 50 C-10.814375 48.7315625 -10.814375 48.7315625 -10.625 47.4375 C-9.97572667 43.86649666 -9.03058847 40.47823608 -8 37 C-7.85691406 36.37867188 -7.71382812 35.75734375 -7.56640625 35.1171875 C-6.88490941 32.5697993 -5.91368404 30.19920728 -4.9375 27.75 C-3.10206273 22.82260746 -2.81750644 19.20106659 -3 14 C-2.68546875 13.37480469 -2.3709375 12.74960938 -2.046875 12.10546875 C-0.79724815 9.59222669 -0.59514429 7.53849437 -0.375 4.75 C-0.30023437 3.85796875 -0.22546875 2.9659375 -0.1484375 2.046875 C-0.07496094 1.03367187 -0.07496094 1.03367187 0 0 Z " fill="#000000" transform="translate(1252,1053)"/>
<path d="M0 0 C69.96 0 139.92 0 212 0 C212 66.33 212 132.66 212 201 C211.34 201 210.68 201 210 201 C209.95101563 200.26394531 209.90203125 199.52789062 209.8515625 198.76953125 C209.73941406 197.30580078 209.73941406 197.30580078 209.625 195.8125 C209.55539062 194.84957031 209.48578125 193.88664063 209.4140625 192.89453125 C208.99328505 189.95305868 208.11190694 187.7424272 207 185 C206.50252412 182.63288948 206.04762453 180.25661352 205.625 177.875 C204.55085883 172.10874414 203.02929255 166.72507539 200.8671875 161.26953125 C200 159 200 159 199.48046875 156.9140625 C198.98288295 154.68903798 198.98288295 154.68903798 197.4375 151.5625 C196.12160279 148.30136344 195.68759731 146.43642959 196 143 C195.34 143 194.68 143 194 143 C193.67 141.35 193.34 139.7 193 138 C192.34 138 191.68 138 191 138 C190.67 135.69 190.34 133.38 190 131 C189.34 131 188.68 131 188 131 C187.01 126.545 187.01 126.545 186 122 C185.34 122 184.68 122 184 122 C180 115.25 180 115.25 180 113 C179.34 113 178.68 113 178 113 C177.68546875 112.43152344 177.3709375 111.86304687 177.046875 111.27734375 C176.15709394 109.67198576 175.26504719 108.06788207 174.37109375 106.46484375 C173.52292935 104.94008097 172.68057873 103.4120483 171.84765625 101.87890625 C170.0604179 98.33186365 170.0604179 98.33186365 167 96 C167 95.34 167 94.68 167 94 C166.34 94 165.68 94 165 94 C164 92.33333333 163 90.66666667 162 89 C161.154375 88.175 160.30875 87.35 159.4375 86.5 C157 84 157 84 156.23828125 81.71875 C154.50800107 77.91977523 151.84679755 75.72961574 148.75 73 C148.18925781 72.49210937 147.62851563 71.98421875 147.05078125 71.4609375 C144.30258304 68.98565505 141.50970998 66.59377287 138.6328125 64.26953125 C136 62 136 62 135.125 59.6875 C135.08375 59.130625 135.0425 58.57375 135 58 C134.43539063 57.90460937 133.87078125 57.80921875 133.2890625 57.7109375 C130.46360138 56.83340521 128.68950512 55.4595743 126.375 53.625 C125.21097656 52.71621094 125.21097656 52.71621094 124.0234375 51.7890625 C122 50 122 50 120 47 C118.34467377 45.98133771 116.67739862 44.98189187 115 44 C114.505 43.484375 114.01 42.96875 113.5 42.4375 C111.54890913 40.56770458 109.51378924 39.94267097 107 39 C105.515 38.01 105.515 38.01 104 37 C104 36.34 104 35.68 104 35 C103.01 35 102.02 35 101 35 C101 34.34 101 33.68 101 33 C100.401875 32.855625 99.80375 32.71125 99.1875 32.5625 C97.43849596 32.1127561 95.71322977 31.57107659 94 31 C93.505 30.01 93.505 30.01 93 29 C91.17489003 28.21984379 89.31393324 27.52204594 87.4375 26.875 C85.91962891 26.34519531 85.91962891 26.34519531 84.37109375 25.8046875 C83.58863281 25.53914063 82.80617188 25.27359375 82 25 C82 24.34 82 23.68 82 23 C81.0925 22.896875 80.185 22.79375 79.25 22.6875 C76 22 76 22 74.19921875 20.62109375 C71.46869714 18.60836468 68.73364558 17.57013695 65.5625 16.375 C64.45003906 15.94960937 63.33757812 15.52421875 62.19140625 15.0859375 C59.44941425 14.15292186 56.85038974 13.47950482 54 13 C54 12.34 54 11.68 54 11 C53.071875 10.87625 52.14375 10.7525 51.1875 10.625 C47.82278671 10.14136565 44.47355922 9.58501556 41.125 9 C40.17882813 8.835 39.23265625 8.67 38.2578125 8.5 C36 8 36 8 35 7 C33.65252916 6.76924918 32.29622435 6.58846937 30.9375 6.4375 C29.638125 6.293125 28.33875 6.14875 27 6 C27 5.34 27 4.68 27 4 C25.453125 4.061875 25.453125 4.061875 23.875 4.125 C20 4 20 4 17.21875 3.03125 C13.61603841 1.87698318 10.39665294 1.58848979 6.625 1.375 C5.37976562 1.30023438 4.13453125 1.22546875 2.8515625 1.1484375 C1.44003906 1.07496094 1.44003906 1.07496094 0 1 C0 0.67 0 0.34 0 0 Z " fill="#000000" transform="translate(1042,0)"/>
<path d="M0 0 C39.6 0 79.2 0 120 0 C119.67 1.65 119.34 3.3 119 5 C118.01 3.515 118.01 3.515 117 2 C115.07045345 1.5699718 115.07045345 1.5699718 112.81567383 1.67529297 C111.93578293 1.67870697 111.05589203 1.68212097 110.14933777 1.68563843 C108.69289604 1.71363022 108.69289604 1.71363022 107.20703125 1.7421875 C106.18108353 1.74916656 105.1551358 1.75614563 104.09809875 1.76333618 C101.85271925 1.77959487 99.60738012 1.80239307 97.36212158 1.83081055 C91.28718428 1.90643781 85.21203091 1.93234297 79.13671875 1.9609375 C77.20807983 1.97148163 77.20807983 1.97148163 75.24047852 1.98223877 C60.24196414 2.04534838 45.24908213 1.80088816 30.25329208 1.53733063 C28.1183032 1.49988254 25.98330264 1.46318307 23.84829712 1.42669678 C15.89875072 1.2905593 7.94931995 1.14878438 0 1 C0 0.67 0 0.34 0 0 Z " fill="#442BD5" transform="translate(796,252)"/>
<path d="M0 0 C1.96646484 0.05414063 1.96646484 0.05414063 3.97265625 0.109375 C4.95105469 0.15578125 5.92945313 0.2021875 6.9375 0.25 C6.6075 0.91 6.2775 1.57 5.9375 2.25 C5.10347656 2.21519531 4.26945313 2.18039062 3.41015625 2.14453125 C-6.71261438 1.81673524 -6.71261438 1.81673524 -16.0625 5.25 C-16.36622528 5.86542664 -16.66995056 6.48085327 -16.98287964 7.1149292 C-18.10910419 9.34216502 -19.27853203 10.70791412 -21.04345703 12.45800781 C-21.64392853 13.05832825 -22.24440002 13.65864868 -22.86306763 14.27716064 C-23.50895844 14.91272888 -24.15484924 15.54829712 -24.8203125 16.203125 C-25.48336395 16.86334656 -26.14641541 17.52356812 -26.82955933 18.20379639 C-28.94421832 20.30727824 -31.06573212 22.40369142 -33.1875 24.5 C-34.62415557 25.92662261 -36.06035898 27.35370072 -37.49609375 28.78125 C-41.01300804 32.27613661 -44.53608547 35.76470062 -48.0625 39.25 C-49.0525 38.92 -50.0425 38.59 -51.0625 38.25 C-46.40318494 33.46325493 -41.72386015 28.69674369 -37.03051758 23.94335938 C-35.43834394 22.32613885 -33.85069865 20.70444646 -32.26782227 19.078125 C-29.98347121 16.73269504 -27.6829771 14.40416648 -25.37890625 12.078125 C-24.68164932 11.35506165 -23.9843924 10.63199829 -23.26600647 9.88702393 C-16.36498759 2.98217254 -9.80248364 -0.35324265 0 0 Z " fill="#3E26CB" transform="translate(973.0625,459.75)"/>
<path d="M0 0 C0.33 0.99 0.66 1.98 1 3 C-0.72657187 4.72657187 -2.4535292 6.45270686 -4.18359375 8.17578125 C-5.5792019 9.57739201 -6.95116422 11.0025785 -8.3125 12.4375 C-10 14 -10 14 -12 14 C-12.26280762 14.5887793 -12.52561523 15.17755859 -12.79638672 15.78417969 C-14.05616181 18.10339241 -15.38004021 19.60949403 -17.2578125 21.453125 C-17.88300781 22.071875 -18.50820313 22.690625 -19.15234375 23.328125 C-19.80332031 23.96234375 -20.45429687 24.5965625 -21.125 25.25 C-21.78371094 25.8996875 -22.44242188 26.549375 -23.12109375 27.21875 C-24.74296643 28.81711727 -26.3693281 30.41061897 -28 32 C-28.99 31.67 -29.98 31.34 -31 31 C-20.77 20.77 -10.54 10.54 0 0 Z " fill="#4327CF" transform="translate(921,499)"/>
<path d="M0 0 C1 3 1 3 0 6 C1.134375 5.814375 2.26875 5.62875 3.4375 5.4375 C8.07696797 4.83992989 12.39572681 5.30722741 17 6 C17 6.33 17 6.66 17 7 C10.93303301 7.77040851 5.11485027 8.09706112 -1 8 C-1.625 5.6875 -1.625 5.6875 -2 3 C-1.34 2.01 -0.68 1.02 0 0 Z " fill="#6135CE" transform="translate(687,961)"/>
<path d="M0 0 C0.66 0.66 1.32 1.32 2 2 C-1.96 5.96 -5.92 9.92 -10 14 C-10.99 13.67 -11.98 13.34 -13 13 C-8.71 8.71 -4.42 4.42 0 0 Z " fill="#4A2CD1" transform="translate(863,558)"/>
<path d="M0 0 C0.66 0.66 1.32 1.32 2 2 C-1.63 5.63 -5.26 9.26 -9 13 C-9.66 12.34 -10.32 11.68 -11 11 C-7.37 7.37 -3.74 3.74 0 0 Z " fill="#4B2BD1" transform="translate(833,589)"/>
<path d="M0 0 C0 3 0 3 -1.609375 4.9375 C-2.31578125 5.618125 -3.0221875 6.29875 -3.75 7 C-4.44609375 7.680625 -5.1421875 8.36125 -5.859375 9.0625 C-7.83014776 10.84626513 -9.84498901 12.44683893 -12 14 C-12.66 13.67 -13.32 13.34 -14 13 C-9.38 8.71 -4.76 4.42 0 0 Z " fill="#161137" transform="translate(718,640)"/>
<path d="M0 0 C2.28928166 1.792665 2.94918203 2.66918495 3.3984375 5.59375 C3.39070312 6.5528125 3.38296875 7.511875 3.375 8.5 C3.38273438 9.4590625 3.39046875 10.418125 3.3984375 11.40625 C2.94918203 14.33081505 2.28928166 15.207335 0 17 C0.17402344 16.30519531 0.34804688 15.61039062 0.52734375 14.89453125 C1.05332633 11.67343131 0.88327655 8.93090738 0.5625 5.6875 C0.46066406 4.61886719 0.35882812 3.55023438 0.25390625 2.44921875 C0.17011719 1.64097656 0.08632813 0.83273437 0 0 Z " fill="#3C28C5" transform="translate(986,464)"/>
<path d="M0 0 C0.33 0 0.66 0 1 0 C1.20397147 3.67148645 0.87531423 5.84157603 -1 9 C-1.495 9.9075 -1.99 10.815 -2.5 11.75 C-3.2425 12.86375 -3.2425 12.86375 -4 14 C-4.66 14 -5.32 14 -6 14 C-4.50829734 9.0276578 -2.39542583 4.58154261 0 0 Z " fill="#552ABB" transform="translate(329,373)"/>
<path d="M0 0 C0.66 0.33 1.32 0.66 2 1 C0.38113585 2.67262717 -1.2452729 4.33795537 -2.875 6 C-3.77992188 6.928125 -4.68484375 7.85625 -5.6171875 8.8125 C-8 11 -8 11 -10 11 C-8.55218207 7.55571735 -6.72305391 5.63869038 -3.875 3.25 C-3.15054687 2.63640625 -2.42609375 2.0228125 -1.6796875 1.390625 C-0.84824219 0.70226562 -0.84824219 0.70226562 0 0 Z " fill="#6331DE" transform="translate(388,301)"/>
<path d="M0 0 C0.33 0.99 0.66 1.98 1 3 C-1.31 5.31 -3.62 7.62 -6 10 C-6.99 9.67 -7.98 9.34 -9 9 C-6.03 6.03 -3.06 3.06 0 0 Z " fill="#4329CA" transform="translate(889,531)"/>
<path d="M0 0 C0.99 0 1.98 0 3 0 C3 4.31618166 0.86729652 5.92789659 -2 9 C-2.66 9 -3.32 9 -4 9 C-2.80100302 5.9168649 -1.52299523 2.93720508 0 0 Z " fill="#5331CC" transform="translate(294,955)"/>
<path d="M0 0 C0.578125 1.91015625 0.578125 1.91015625 1 4 C-0.25 5.4375 -0.25 5.4375 -2 7 C-2.7734375 8.3303125 -2.7734375 8.3303125 -3.5625 9.6875 C-4.2740625 10.8321875 -4.2740625 10.8321875 -5 12 C-5.66 12 -6.32 12 -7 12 C-5.61735163 9.13132769 -4.07851447 6.43975968 -2.375 3.75 C-1.92898438 3.04359375 -1.48296875 2.3371875 -1.0234375 1.609375 C-0.68570313 1.07828125 -0.34796875 0.5471875 0 0 Z " fill="#5933D5" transform="translate(822,767)"/>
<path d="M0 0 C0.33 1.32 0.66 2.64 1 4 C-0.21484375 5.921875 -0.21484375 5.921875 -1.9375 7.75 C-2.50339844 8.36359375 -3.06929687 8.9771875 -3.65234375 9.609375 C-4.31943359 10.29773438 -4.31943359 10.29773438 -5 11 C-5.66 10.67 -6.32 10.34 -7 10 C-3.535 5.05 -3.535 5.05 0 0 Z " fill="#5C36D6" transform="translate(761,855)"/>
<path d="M0 0 C0.66 0.33 1.32 0.66 2 1 C-0.31 3.64 -2.62 6.28 -5 9 C-5.66 8.67 -6.32 8.34 -7 8 C-5.08864614 4.46399535 -3.37357234 2.21027154 0 0 Z " fill="#5734D1" transform="translate(387,809)"/>
<path d="M0 0 C0.33 0.66 0.66 1.32 1 2 C-0.98 4.31 -2.96 6.62 -5 9 C-5.33 8.34 -5.66 7.68 -6 7 C-5.34 6.01 -4.68 5.02 -4 4 C-3.34 4 -2.68 4 -2 4 C-1.34 2.68 -0.68 1.36 0 0 Z " fill="#4328C5" transform="translate(879,541)"/>
<path d="M0 0 C0.66 0.33 1.32 0.66 2 1 C-2.82142857 7.29464286 -2.82142857 7.29464286 -7 8 C-6.02133662 6.85373678 -5.04205413 5.70800212 -4.0625 4.5625 C-3.51722656 3.92441406 -2.97195313 3.28632813 -2.41015625 2.62890625 C-1.63204305 1.73008851 -0.84063472 0.84063472 0 0 Z " fill="#6631DC" transform="translate(366,322)"/>
</svg>
